<?xml version="1.0" encoding="UTF-8"?>
<svg id="Layer_2" xmlns="http://www.w3.org/2000/svg" xmlns:xlink="http://www.w3.org/1999/xlink" viewBox="0 0 78.71 91.08">
  <defs>
    <style>
      .cls-1 {
        fill: none;
      }

      .cls-2 {
        clip-path: url(#clippath-1);
      }

      .cls-3 {
        clip-path: url(#clippath);
      }
    </style>
    <clipPath id="clippath">
      <polygon class="cls-1" points="39.67 0 39.67 0 78.71 0 78.71 44.61 39.67 44.61 39.67 0"/>
    </clipPath>
    <clipPath id="clippath-1">
      <polygon class="cls-1" points="39.04 0 39.04 0 0 0 0 44.61 39.04 44.61 39.04 0"/>
    </clipPath>
  </defs>
  <g id="Layer_1-2" data-name="Layer_1">
    <g>
      <g>
        <g id="_x3C_Mirror_Repeat_x3E_">
          <g class="cls-3">
            <path d="M70.5,2.81l5.4,4.37-28.02,34.61-5.4-4.37L70.5,2.81M70.21,0l-30.54,37.72,8.5,6.88L78.71,6.88l-8.51-6.88h0Z"/>
          </g>
        </g>
        <g id="_x3C_Mirror_Repeat_x3E_-2" data-name="_x3C_Mirror_Repeat_x3E_">
          <g class="cls-2">
            <path d="M8.21,2.81L2.81,7.18l28.02,34.61,5.4-4.37L8.21,2.81M8.51,0l30.54,37.72-8.5,6.88L0,6.88,8.51,0h0Z"/>
          </g>
        </g>
      </g>
      <rect x="31.33" y="46.56" width="16.06" height="44.52"/>
      <polygon points="39.36 39.6 31.33 46.56 47.39 46.56 39.36 39.6"/>
    </g>
  </g>
</svg>